<svg version="1.2" baseProfile="tiny-ps" xmlns="http://www.w3.org/2000/svg" viewBox="0 0 49 69" width="49" height="69">
	<title>icon</title>
	<style>
		tspan { white-space:pre }
		.s0 { fill: #ffffff } 
	</style>
	<path id="icon" class="s0" d="m41.6 68.99h-34.2c-3.53 0-6.41-2.9-6.41-6.47v-56.04c0-3.57 2.88-6.47 6.41-6.47h34.2c3.54 0 6.41 2.9 6.41 6.47v56.04c0 3.57-2.87 6.47-6.41 6.47zm2.14-62.51c0-1.19-0.96-2.16-2.14-2.16h-34.2c-1.18 0-2.14 0.97-2.14 2.16v56.04c0 1.19 0.96 2.16 2.14 2.16h34.2c1.18 0 2.14-0.97 2.14-2.16v-56.04zm-34.2 2.16h29.92v47.42h-29.92v-47.42zm14.96 49.58c1.18 0 2.14 0.97 2.14 2.16c0 1.19-0.96 2.16-2.14 2.16c-1.18 0-2.14-0.97-2.14-2.16c0-1.19 0.96-2.16 2.14-2.16z" />
</svg>