<svg version="1.2" baseProfile="tiny-ps" xmlns="http://www.w3.org/2000/svg" viewBox="0 0 70 70" width="70" height="70">
	<title>icon</title>
	<style>
		tspan { white-space:pre }
		.s0 { fill: #f9f9f9 } 
	</style>
	<path id="icon" class="s0" d="m61.24 56.87v13.12l-13.12-13.12h-21.87c-4.37 0-8.75-4.37-8.75-8.75v-2.56l6.18-6.18h20.06c6.75 0 13.12-6.38 13.12-13.12v-4.37h4.37c4.37 0 8.75 4.37 8.75 8.75v17.49c0 4.37-4.37 8.75-8.75 8.75zm-17.49-21.87h-21.87l-13.12 13.12v-13.12c-4.37 0-8.75-4.37-8.75-8.75v-17.49c0-4.37 4.37-8.75 8.75-8.75h34.99c4.37 0 8.75 4.37 8.75 8.75v17.49c0 4.37-4.37 8.75-8.75 8.75z" />
</svg>